:SAMPLES-PER-SECOND 30
:FULLY-SPECIFIED
:DEGREES
82
root  8.11307 38.3763 -5.64541 -141.005 -80.4246 150.609
RightUpLeg  8.04861 -11.6273 -10.1797
RightLeg  24.1584 -0.971872 -0.743299
RightFoot  -6.43363 -0.694927 15.7858
RightToes  0.00048216 0.542163 -0.142577
Spine  24.2206 6.41584 4.02124
Spine1  -7.56112 7.5423 -1.87073
HEad  -18.1379 -1.85472 -10.6086
LeftShoulder1  6.45359 -12.4947 -34.2965
LeftArm  -1.04778 26.5036 2.57886
LeftForeArm  21.0964 -11.2307 -5.43179
LeftHand  -0.25398 0.0180481 5.50724
RightShoulder  5.16067 9.87987 32.6183
RightArm  -13.8568 24.4425 21.672
RightForeArm  128.669 74.1698 138.902
RightHand  -3.17329 7.48802 -28.4306
LeftUpLeg  -65.1739 5.45115 -4.54704
LeftLeg  55.2046 7.96102 12.5829
LeftFoot  -18.2922 -0.129949 -3.92947
LeftToes  1.06249e-005 4.65856e-005 -8.18498e-006
83
root  4.29382 39.6555 -5.79863 -145.795 -79.6863 156.593
RightUpLeg  13.6699 -15.2833 -13.6984
RightLeg  16.4124 2.43753 0.735486
RightFoot  11.1519 -2.8874 14.9299
RightToes  0.00048216 0.542163 -0.142577
Spine  18.2479 8.51607 4.49173
Spine1  -5.52975 9.78667 -4.40974
HEad  -12.3847 -4.10506 -8.53013
LeftShoulder1  5.39693 -11.2985 -30.4125
LeftArm  3.78248 27.6731 7.56431
LeftForeArm  22.0865 -11.8709 -6.05151
LeftHand  -0.25398 0.0180481 5.50724
RightShoulder  5.3971 10.329 33.074
RightArm  -8.48237 19.0513 21.29
RightForeArm  142.474 66.6676 154.302
RightHand  -2.43998 5.2844 -26.4834
LeftUpLeg  -66.0781 8.49822 -5.62131
LeftLeg  43.9432 8.77241 9.36029
LeftFoot  -15.5556 -0.0839835 -4.83306
LeftToes  1.06249e-005 4.65856e-005 -8.18498e-006
84
root  0.435605 40.6363 -5.78944 -159.753 -78.9993 169.838
RightUpLeg  18.9097 -17.1837 -16.6115
RightLeg  15.6371 3.54478 1.2546
RightFoot  18.0748 -3.24047 12.7193
RightToes  0.00048216 0.542163 -0.142577
Spine  13.7615 9.88466 7.93181
Spine1  -1.97709 11.7838 -7.04315
HEad  -7.59224 -5.17538 -7.60222
LeftShoulder1  4.29086 -9.33644 -27.2801
LeftArm  4.86819 28.8812 11.2287
LeftForeArm  22.125 -11.0408 -6.09215
LeftHand  -0.25398 0.0180481 5.50724
RightShoulder  5.50498 10.7968 32.5515
RightArm  -1.25925 14.9861 22.8449
RightForeArm  146.745 61.1786 159.902
RightHand  -2.15181 4.2709 -25.7931
LeftUpLeg  -64.5138 12.5207 -5.96924
LeftLeg  34.5468 7.58885 5.97052
LeftFoot  -14.1372 -0.0863072 -6.95441
LeftToes  1.06249e-005 4.65856e-005 -8.18498e-006
85
root  -3.4943 41.2528 -5.71226 -174.352 -77.7642 -177.276
RightUpLeg  23.2407 -15.5868 -18.0789
RightLeg  20.1107 1.29326 0.248202
RightFoot  15.3787 -2.46077 10.7819
RightToes  0.00048216 0.542163 -0.142577
Spine  9.70076 10.8803 11.9581
Spine1  2.06169 13.3064 -8.82041
HEad  -3.37602 -5.0387 -6.9362
LeftShoulder1  3.09505 -6.76569 -23.837
LeftArm  5.78513 31.1991 13.2488
LeftForeArm  21.4899 -9.89781 -6.11439
LeftHand  -0.25398 0.0180481 5.50724
RightShoulder  5.13659 10.6123 30.417
RightArm  7.28952 11.5001 26.8516
RightForeArm  149.963 58.4706 162.057
RightHand  -2.01074 3.94852 -24.9436
LeftUpLeg  -61.0863 16.3401 -5.44068
LeftLeg  27.0409 4.82651 3.0065
LeftFoot  -13.2941 -0.083558 -9.64666
LeftToes  1.06249e-005 4.65856e-005 -8.18498e-006
86
root  -7.43125 41.4696 -5.61467 176.366 -76.2001 -169.46
RightUpLeg  25.5898 -11.2834 -18.0725
RightLeg  26.8581 -2.28419 -1.47093
RightFoot  11.3902 -2.09606 10.811
RightToes  0.00048216 0.542163 -0.142577
Spine  5.36577 11.8662 14.8367
Spine1  5.64838 14.4055 -9.82794
HEad  0.738704 -4.51373 -5.92241
LeftShoulder1  2.05786 -4.20306 -20.2107
LeftArm  9.12191 34.5993 14.46
LeftForeArm  22.7453 -9.2633 -6.5648
LeftHand  -0.25398 0.0180481 5.50724
RightShoulder  4.60553 10.0345 28.0126
RightArm  15.1808 6.58071 30.8041
RightForeArm  154.138 57.1606 163.213
RightHand  -1.70345 3.17518 -23.0761
LeftUpLeg  -57.0555 18.8238 -4.38385
LeftLeg  21.0857 3.11775 1.66283
LeftFoot  -11.3603 0.0601481 -9.98662
LeftToes  1.06249e-005 4.65856e-005 -8.18498e-006
87
root  -11.3117 41.3486 -5.47976 170.57 -74.8991 -165.354
RightUpLeg  26.3869 -7.1544 -17.8314
RightLeg  35.3698 -3.94629 -3.25324
RightFoot  9.71155 -2.13405 11.8117
RightToes  0.00048216 0.542163 -0.142577
Spine  2.25646 12.4989 16.9574
Spine1  7.95547 15.0062 -10.6604
HEad  4.67929 -3.93444 -4.78456
LeftShoulder1  1.29478 -1.89255 -17.2493
LeftArm  12.2292 38.5359 15.0903
LeftForeArm  25.0153 -8.91473 -6.80353
LeftHand  -0.25398 0.0180481 5.50724
RightShoulder  4.26813 9.66076 26.3634
RightArm  21.1094 -0.0867658 32.9342
RightForeArm  158.589 56.4936 163.972
RightHand  -1.3848 2.18646 -21.2665
LeftUpLeg  -51.8798 19.5673 -2.52022
LeftLeg  16.515 4.13027 1.38168
LeftFoot  -9.34076 0.193709 -7.79775
LeftToes  1.06249e-005 4.65856e-005 -8.18498e-006
88
root  -15.0963 40.8899 -5.30606 165.489 -73.6312 -162.875
RightUpLeg  26.1829 -3.00703 -17.0265
RightLeg  45.919 -5.00982 -5.87361
RightFoot  7.9172 -1.86035 11.2244
RightToes  0.00048216 0.542163 -0.142577
Spine  1.19599 12.5797 18.9826
Spine1  9.14584 15.2928 -11.4822
HEad  8.49076 -3.01569 -3.76976
LeftShoulder1  0.615613 0.639556 -14.0739
LeftArm  11.8809 43.0979 13.0113
LeftForeArm  24.9335 -9.20612 -6.08295
LeftHand  -0.25398 0.0180481 5.50724
RightShoulder  4.00453 9.35496 25.0215
RightArm  25.0906 -7.65005 33.8956
RightForeArm  161.621 57.201 163.808
RightHand  -1.26859 1.82379 -20.4595
LeftUpLeg  -44.1152 18.4541 1.46602
LeftLeg  13.1833 7.8333 0.672302
LeftFoot  -8.65946 0.204878 -6.4287
LeftToes  1.06249e-005 4.65856e-005 -8.18498e-006
89
root  -18.8315 40.0536 -5.13316 161.975 -71.9818 -161.87
RightUpLeg  24.2307 0.819459 -15.7509
RightLeg  57.9152 -5.52979 -9.90595
RightFoot  4.5906 -1.17517 8.57446
RightToes  0.00048216 0.542163 -0.142577
Spine  0.496514 12.5857 20.2952
Spine1  9.6653 15.4844 -11.6645
HEad  12.408 -1.70403 -2.78955
LeftShoulder1  0.030448 3.34637 -9.87152
LeftArm  9.14917 48.9751 7.44777
LeftForeArm  22.4001 -11.3078 -4.82346
LeftHand  -0.25398 0.0180481 5.50724
RightShoulder  3.61505 8.64518 23.5613
RightArm  27.3245 -15.8427 34.339
RightForeArm  162.433 59.4218 162.506
RightHand  -1.23574 1.83121 -19.9099
LeftUpLeg  -35.8841 17.8361 4.3889
LeftLeg  11.3643 9.92081 -0.103955
LeftFoot  -7.21109 0.290971 -6.66788
LeftToes  1.06249e-005 4.65856e-005 -8.18498e-006
